<svg xmlns="http://www.w3.org/2000/svg" width="19.804" height="17.328" viewBox="0 0 19.804 17.328">
  <path id="bars-solid" d="M.707,63.183H19.1a.707.707,0,0,0,.707-.707V60.707A.707.707,0,0,0,19.1,60H.707A.707.707,0,0,0,0,60.707v1.768A.707.707,0,0,0,.707,63.183Zm0,7.073H19.1a.707.707,0,0,0,.707-.707V67.78a.707.707,0,0,0-.707-.707H.707A.707.707,0,0,0,0,67.78v1.768A.707.707,0,0,0,.707,70.255Zm0,7.073H19.1a.707.707,0,0,0,.707-.707V74.853a.707.707,0,0,0-.707-.707H.707A.707.707,0,0,0,0,74.853v1.768A.707.707,0,0,0,.707,77.328Z" transform="translate(0 -60)" fill="#001868"/>
</svg>
