<svg xmlns="http://www.w3.org/2000/svg" width="18.562" height="14.847" viewBox="0 0 18.562 14.847">
  <path id="code-solid" d="M8.064,14.87l-1.769-.513a.349.349,0,0,1-.238-.432L10.016.288a.349.349,0,0,1,.432-.238l1.769.513A.349.349,0,0,1,12.455,1L8.5,14.632A.348.348,0,0,1,8.064,14.87ZM4.758,11.616,6.019,10.27A.348.348,0,0,0,6,9.772L3.369,7.46,6,5.149a.346.346,0,0,0,.023-.5L4.758,3.3a.348.348,0,0,0-.493-.015L.086,7.205a.346.346,0,0,0,0,.508l4.179,3.918a.346.346,0,0,0,.493-.015Zm9.489.017,4.179-3.918a.346.346,0,0,0,0-.508L14.247,3.287a.351.351,0,0,0-.493.015L12.492,4.647a.348.348,0,0,0,.023.5L15.143,7.46,12.516,9.772a.346.346,0,0,0-.023.5l1.262,1.346a.348.348,0,0,0,.493.017Z" transform="translate(0.025 -0.037)" fill="#001868"/>
</svg>
