<svg xmlns="http://www.w3.org/2000/svg" width="16.763" height="15.578" viewBox="0 0 16.763 15.578">
  <path id="download-solid" d="M7.072,0H9.691a.758.758,0,0,1,.786.73V5.842h2.871a.6.6,0,0,1,.462,1.038L8.83,11.51a.669.669,0,0,1-.894,0L2.95,6.879a.6.6,0,0,1,.462-1.038H6.286V.73A.758.758,0,0,1,7.072,0Zm9.691,11.44v3.408a.758.758,0,0,1-.786.73H.786A.758.758,0,0,1,0,14.848V11.44a.758.758,0,0,1,.786-.73h4.8l1.6,1.491a1.769,1.769,0,0,0,2.377,0l1.6-1.491h4.8A.758.758,0,0,1,16.763,11.44ZM12.7,14.117a.657.657,0,1,0-.655.609A.635.635,0,0,0,12.7,14.117Zm2.1,0a.657.657,0,1,0-.655.609A.635.635,0,0,0,14.8,14.117Z" fill="#001868"/>
</svg>
