<svg xmlns="http://www.w3.org/2000/svg" width="25.933" height="17.289" viewBox="0 0 25.933 17.289">
  <path id="eye-regular" d="M12.967,67.6a5,5,0,0,0-1.407.225,2.494,2.494,0,0,1,.326,1.216,2.521,2.521,0,0,1-2.521,2.521,2.494,2.494,0,0,1-1.216-.326A5.03,5.03,0,1,0,12.967,67.6Zm12.81,4.385A14.441,14.441,0,0,0,12.967,64,14.443,14.443,0,0,0,.157,71.988a1.456,1.456,0,0,0,0,1.314,14.441,14.441,0,0,0,12.81,7.987A14.443,14.443,0,0,0,25.777,73.3a1.456,1.456,0,0,0,0-1.314Zm-12.81,7.141A12.248,12.248,0,0,1,2.255,72.644a12.247,12.247,0,0,1,10.712-6.483,12.247,12.247,0,0,1,10.712,6.483A12.247,12.247,0,0,1,12.967,79.128Z" transform="translate(-0.001 -64)" fill="#001868"/>
</svg>
